<svg width="62" height="62" viewBox="0 0 62 62" fill="none" xmlns="http://www.w3.org/2000/svg">
<path d="M31 58.7709C18.3934 58.7709 8.13753 48.5151 8.13753 35.9084C8.06003 21.1059 22.165 8.78341 28.2359 4.15925C29.8634 2.91925 32.1367 2.91925 33.7642 4.15925C39.8351 8.86091 53.9401 21.3384 53.8626 35.9342C53.8626 48.5151 43.6067 58.7709 31 58.7709ZM31 7.10425C30.8709 7.10425 30.7159 7.15591 30.5867 7.25925C26.2209 10.5917 11.9609 22.5009 12.0384 35.9084C12.0384 46.3967 20.5634 54.8959 31.0259 54.8959C41.4884 54.8959 50.0133 46.3967 50.0133 35.9342C50.0908 22.7076 35.805 10.6434 31.4134 7.25925C31.2584 7.15591 31.1292 7.10425 31 7.10425Z" fill="#EEEEEE"/>
</svg>
