<svg width="21" height="22" viewBox="0 0 21 22" fill="none" xmlns="http://www.w3.org/2000/svg">
<g id="Frame" clip-path="url(#clip0_44_740)">
<path id="Vector" d="M18.9296 5.56224L12.8928 1.3281C11.2523 0.174315 8.72239 0.232542 7.14 1.46528L1.87324 5.57212C0.81831 6.39328 0 8.06523 0 9.39469V16.6401C-1.30062e-06 17.9271 0.51021 19.1614 1.41859 20.0721C2.32696 20.9827 3.55924 21.4952 4.84479 21.4971H16.1552C17.4392 21.4958 18.6703 20.9848 19.5785 20.0761C20.4867 19.1675 20.9979 17.9354 21 16.65V9.53188C21 8.11359 20.092 6.37354 18.9296 5.56224ZM15.6277 13.9318C15.6275 14.9042 15.2415 15.8367 14.5547 16.5243C13.8679 17.2118 12.9364 17.5982 11.9651 17.5985H9.03493C8.06361 17.5982 7.13214 17.2118 6.44532 16.5243C5.75849 15.8367 5.37252 14.9042 5.37225 13.9318V10.9985C5.37252 10.0262 5.75849 9.09369 6.44532 8.40612C7.13214 7.71855 8.06361 7.33216 9.03493 7.3319H11.9651C12.9364 7.33216 13.8679 7.71855 14.5547 8.40612C15.2415 9.09369 15.6275 10.0262 15.6277 10.9985V13.9318Z" fill="#4BFFBE"/>
<path id="Vector_2" d="M11.9651 7.33179H9.03499C7.01215 7.33179 5.37231 8.9734 5.37231 10.9984V13.9317C5.37231 15.9568 7.01215 17.5984 9.03499 17.5984H11.9651C13.988 17.5984 15.6278 15.9568 15.6278 13.9317V10.9984C15.6278 8.9734 13.988 7.33179 11.9651 7.33179Z" fill="#0A0A0A"/>
</g>
<defs>
<clipPath id="clip0_44_740">
<rect width="21" height="21" fill="white" transform="translate(0 0.5)"/>
</clipPath>
</defs>
</svg>
