<svg xmlns="http://www.w3.org/2000/svg" viewBox="0 0 331.65 501.6"><defs><style>.cls-1{fill:#00037f;}.cls-2{fill:#0058d4;}.cls-3{fill:#29abe2;}.cls-4{fill:#8cc63f;}</style></defs><g id="Layer_2" data-name="Layer 2"><g id="Layer_2-2" data-name="Layer 2"><path class="cls-1" d="M83.16,187c-5.57,3.78-87.28,61.21-83,157,.54,12.1,4.47,70,52,114,44.94,41.62,111.23,54.54,169,34,77.17-27.43,101.57-101.2,104-109,21.07-67.58-12.65-141.77-51-183-29.64-31.87-63.78-45.2-86-95a180.39,180.39,0,0,1-14-50c-1.95,14.9-2.53,36.36,6,59,8.27,21.92,21.2,34.64,33,47,44.7,46.81,79.61,83.37,94,131,3.65,12.08,10.61,36,6,66-7.06,45.95-39.59,94.83-93,115-58.78,22.2-122.92,2.08-161-39-49.54-53.46-37.71-123.84-35-140C34,235.32,70.11,199,83.16,187Z"/><path class="cls-2" d="M77.16,288c-4.92,10.64-20.15,47-7,89,2.79,8.9,9.37,29,28,46,26,23.66,68,34.42,106,19,49.63-20.12,60.62-71.9,62-79,7.4-38.07-8-68.17-13-77,1.79,7.55,9.91,45.21-13,80-4.17,6.34-17,25.25-42,35-28.41,11.08-62.59,6.43-86-12-33.21-26.16-34.44-72-35-93C77.07,292.64,77.11,289.86,77.16,288Z"/><path class="cls-3" d="M116.16,272c-1.89-.25-15.66,31.84-2,59a57.4,57.4,0,0,0,16,19c2.78,2.14,24.77,18.49,51,11,25.44-7.27,38.84-32.38,41-53a65,65,0,0,0-7-36c1,3.84,5.59,23.34-6,42a51.82,51.82,0,0,1-21,19c-2.61,1.28-24.75,11.68-46,0-17-9.34-22.09-26.57-24-33C113.37,283.83,117.3,272.15,116.16,272Z"/><path class="cls-4" d="M236.16,26c-31.8,52.41-33.89,70.42-28,76,6.06,5.74,23.84,1.43,33-9,13.05-14.84,1.63-34.09,12-69a124,124,0,0,1,10-24,203.82,203.82,0,0,0-58,27c-13.44,9.14-17.59,14.46-20,20-9.48,21.79,5.07,48.67,9,48,3.26-.55-3.55-19.64,8-39,6.77-11.34,18.08-19.84,21-22A89.42,89.42,0,0,1,236.16,26Z"/><path class="cls-4" d="M163.16,99c-1.72-3-10.1-16.89-27-21a41.1,41.1,0,0,0-19,0,236.09,236.09,0,0,1,34,20c4.5,3.2,7.24,5.41,7,8-.53,5.74-15.52,11.46-28,8-6.74-1.87-11.08-6.18-14-9-8-7.78-7.55-13.07-14-20-3.33-3.59-9-8.15-19-11a98.27,98.27,0,0,1,33-8c6.5-.4,13.92-.79,23,2,6.73,2.07,17.16,5.26,22,15A26,26,0,0,1,163.16,99Z"/></g></g></svg>