<svg xmlns="http://www.w3.org/2000/svg" xmlns:xlink="http://www.w3.org/1999/xlink" viewBox="0 0 398.07 336.49"><defs><style>.cls-1{fill:url(#linear-gradient);}.cls-2{fill:#846117;}.cls-3{fill:url(#linear-gradient-2);}.cls-4{fill:#75b500;}</style><linearGradient id="linear-gradient" y1="188.76" x2="398.07" y2="188.76" gradientUnits="userSpaceOnUse"><stop offset="0" stop-color="#00e3e9"/><stop offset="0.52" stop-color="#7fffff"/><stop offset="1" stop-color="#00bf94"/></linearGradient><linearGradient id="linear-gradient-2" x1="87.07" y1="234.01" x2="351.07" y2="234.01" xlink:href="#linear-gradient"/></defs><g id="Layer_2" data-name="Layer 2"><g id="Layer_3" data-name="Layer 3"><path class="cls-1" d="M25.07,41a196.64,196.64,0,0,0-24,75c-7.41,69.75,25.84,121.09,34,133,53.56,78.15,142.2,86.34,151,87,12.35.93,96.7,5.84,159-60,45.87-48.48,51.85-105.79,53-123-4.53,16.86-18.57,60.19-60,96a197.13,197.13,0,0,1-94,44c-16.24,2.8-90.19,13.43-154-37-51-40.27-64.09-94.69-68-112A210.05,210.05,0,0,1,25.07,41Z"/><path class="cls-2" d="M189.07,224c-3.57-2.83-1.35-10.35,5-44,1.92-10.17,2.05-11.26,2-13-.49-16.62-15.76-29.54-29-38a37.55,37.55,0,0,1,16,7c9.39,7.27,10.87,16.36,13,16,5.86-1-1.83-70.76,0-71,.72-.1,3.3,10.39,6,30a562.12,562.12,0,0,1,4,109C195.1,226.31,190.93,225.51,189.07,224Z"/><path class="cls-3" d="M87.07,231c16.4,13.2,50.65,36.76,99,42a194.75,194.75,0,0,0,53-2c50.91-8.82,85.63-35.48,99-46,5.55-4.36,10-8.24,13-11-27.1-17.2-49.35-19.86-62-20-18.22-.21-36.48,5.2-73,16-13.63,4-20.44,6.47-26.81,8.48C167.26,225.47,134.09,232.47,87.07,231Z"/><path class="cls-4" d="M334.07,238c.19.19,18.2-10.57,25-32,5.68-17.92.62-34.08-1-39-10.44-31.82-36.58-36-56-61-11.89-15.32-23.21-41-19-86a219.76,219.76,0,0,0,32,20c16.51,8.43,21.91,8.54,32,14,3.92,2.11,30.18,16.79,41,46,13,35.06-4.94,67.64-8,73a119.7,119.7,0,0,0-58-107c14.34,14.12,43.66,46.8,49,90,2,16.16-.23,26.71-1,30C362.3,219.29,333.82,237.79,334.07,238Z"/><path class="cls-4" d="M46.07,17C59.13,9.68,82.4-.71,112.07,0c17.43.44,41,1,59,19,19.14,19.15,19.18,45.36,19,52a97.74,97.74,0,0,0-83-40,159.72,159.72,0,0,1,82,48c-28.89,13.71-49.1,9.38-57,7-23.85-7.19-42.35-28.75-46-33-6.32-7.37-15-19.45-32-31C50.78,19.8,48,18.12,46.07,17Z"/><path class="cls-4" d="M110.07,112a47.13,47.13,0,0,1,26-10c5.93-.32,15.67-.85,23,6a24.5,24.5,0,0,1,7,13,41.53,41.53,0,0,0-20-9,40.15,40.15,0,0,0-12,0c2.77.55,7,1.49,12,3,10.07,3,19,5.7,19,9s-8.39,6.91-16,7c-11.06.13-20.19-7.33-21-8-3.51-2.94-6-6.31-12-9A31.92,31.92,0,0,0,110.07,112Z"/><path class="cls-4" d="M200.07,75c.31-2.81,2.15-17,14-25,8-5.41,16.48-5.18,23-5a57.88,57.88,0,0,1,29,9,110.52,110.52,0,0,0-15,11c-10.9,9.5-10.18,12.66-17,16a33.33,33.33,0,0,1-30-1c-1.23-.71-2.69-.93-3-2-1.09-3.82,11.88-11.22,22-15a73.58,73.58,0,0,1,16-4,44.59,44.59,0,0,0-20,2c-3.68,1.26-10.4,3.65-16,10A30.86,30.86,0,0,0,200.07,75Z"/></g></g></svg>