<svg xmlns="http://www.w3.org/2000/svg" xmlns:xlink="http://www.w3.org/1999/xlink" viewBox="0 0 207.45 299.74"><defs><style>.cls-1{fill:#a44040;}.cls-2{fill:#fff;}.cls-3{fill:url(#Orange_Yellow);}.cls-4{fill:url(#Orange_Yellow-2);}.cls-5{fill:url(#Orange_Yellow-3);}.cls-6{fill:url(#Orange_Yellow-4);}.cls-7{fill:url(#Orange_Yellow-5);}.cls-8{fill:url(#Orange_Yellow-6);}.cls-9{fill:url(#Orange_Yellow-7);}.cls-10{fill:#6af0ff;}</style><linearGradient id="Orange_Yellow" x1="42.13" y1="86.91" x2="79.6" y2="86.91" gradientUnits="userSpaceOnUse"><stop offset="0" stop-color="#fbf250"/><stop offset="0.04" stop-color="#f8e748"/><stop offset="0.11" stop-color="#f2d43b"/><stop offset="0.19" stop-color="#efc934"/><stop offset="0.28" stop-color="#eec531"/><stop offset="0.67" stop-color="#db8e46"/><stop offset="0.89" stop-color="#d06841"/><stop offset="1" stop-color="#c9403d"/></linearGradient><linearGradient id="Orange_Yellow-2" x1="17.39" y1="38.29" x2="48.26" y2="38.29" xlink:href="#Orange_Yellow"/><linearGradient id="Orange_Yellow-3" x1="49.33" y1="16.9" x2="69.65" y2="16.9" xlink:href="#Orange_Yellow"/><linearGradient id="Orange_Yellow-4" x1="0" y1="102.43" x2="36.77" y2="102.43" xlink:href="#Orange_Yellow"/><linearGradient id="Orange_Yellow-5" x1="0" y1="68.72" x2="36.65" y2="68.72" xlink:href="#Orange_Yellow"/><linearGradient id="Orange_Yellow-6" x1="17.39" y1="132.94" x2="48.26" y2="132.94" xlink:href="#Orange_Yellow"/><linearGradient id="Orange_Yellow-7" x1="49.33" y1="154.19" x2="69.65" y2="154.19" xlink:href="#Orange_Yellow"/></defs><g id="Layer_2" data-name="Layer 2"><g id="colour"><path class="cls-1" d="M115,228.12V63.79a4.14,4.14,0,0,0-4.14-4.15h-.09a4.14,4.14,0,0,0-4.14,4.15v164.5a26.47,26.47,0,1,0,8.37-.17Z"/></g><g id="OBJECT"><path class="cls-2" d="M86,99.39V214a47.3,47.3,0,0,0-19.46,52c5.4,19.72,24.11,33.13,44.18,33.75,20.41.63,38.45-13.32,45-32.21,6.92-20-1.93-42-19-53.51V67.19c0-6.56.63-13.55-.57-20C132.45,27.4,103,24.72,91.28,38.07,85.16,45.07,86,54,86,62.5Zm7.13,116.49V65.76c0-7.35-1.24-16,3-22.37,4.84-7.29,18.41-8,25.69-4.33,5.6,2.85,7.76,8.72,7.76,14.62V216a3.3,3.3,0,0,0,1.12,2.59,4.25,4.25,0,0,0,.65.49,40,40,0,0,1,7.26,62.66c-17.74,17.5-47.38,12.73-60.62-7.54-6.8-10.4-7.67-23.36-3.65-34.92A39.22,39.22,0,0,1,84.2,224.4C86.54,222.1,93.11,219.58,93.11,215.88Z"/><path class="cls-3" d="M42.13,86.91A37.47,37.47,0,0,0,79.6,124.39v-75A37.47,37.47,0,0,0,42.13,86.91Z"/><path class="cls-4" d="M18.55,31.11l23.8,19.12c3.35,2.68,8.13-2,4.75-4.76L23.3,26.36C20,23.67,15.17,28.4,18.55,31.11Z"/><path class="cls-5" d="M63.45,32.09c2,3.87,7.76.46,5.8-3.39Q62.4,15.2,55.53,1.7c-2-3.86-7.76-.46-5.8,3.39Q56.58,18.59,63.45,32.09Z"/><path class="cls-6" d="M4.2,109.12l30.16-6.89c4.23-1,2.44-7.44-1.78-6.48L2.41,102.63C-1.81,103.6,0,110.08,4.2,109.12Z"/><path class="cls-7" d="M2.41,68.53l30,6.86c4.22,1,6-5.52,1.79-6.48l-30-6.86C0,61.09-1.81,67.57,2.41,68.53Z"/><path class="cls-8" d="M42.35,121.07l-23.8,19c-3.39,2.7,1.4,7.42,4.75,4.75l23.8-19C50.49,123.12,45.7,118.4,42.35,121.07Z"/><path class="cls-9" d="M55.53,169.46l13.72-27.14c2-3.86-3.85-7.27-5.8-3.4q-6.87,13.58-13.72,27.15C47.78,169.93,53.58,173.33,55.53,169.46Z"/><path class="cls-10" d="M117.49,73.75,133.93,70a2.75,2.75,0,0,0,.7-.26L155.86,83,134.75,96.84a2.72,2.72,0,0,0-.34-.11L117.9,93.29c-3.57-.74-5.09,4.73-1.51,5.48l11.69,2.43-9,5.87c-3,2-.2,6.92,2.87,4.91l9.36-6.13q-1.18,5.66-2.36,11.33c-.75,3.58,4.73,5.1,5.48,1.51q1.68-8.13,3.38-16.25a2.94,2.94,0,0,0,0-.88L158,88.38v23.47a3,3,0,0,0-.4.33L145.67,124.1c-2.59,2.59,1.43,6.61,4,4l8.31-8.31v10.84c0,3.67,5.68,3.67,5.68,0v-11l8.31,8.31c2.59,2.59,6.6-1.42,4-4l-11.73-11.73a3,3,0,0,0-.59-.46V87.9l20.58,12.88a2.86,2.86,0,0,0,.08.63q1.88,8.2,3.77,16.43c.82,3.57,6.3,2.06,5.48-1.51L191,105l9.27,5.8c3.11,2,6-3,2.87-4.9l-9.28-5.82,11.57-2.66c3.57-.82,2.06-6.29-1.51-5.47l-16.18,3.72a3.63,3.63,0,0,0-.61.2l-20.73-13L187,69.36l.21.07,16.25,3.38c3.58.75,5.1-4.73,1.51-5.47L193.7,65l8.09-5.29c3.05-2,.21-6.92-2.86-4.91l-8.65,5.67q1.22-5.87,2.44-11.73c.75-3.58-4.73-5.1-5.47-1.51q-1.73,8.25-3.44,16.51a3,3,0,0,0,0,1L163.68,77.88V53a3.31,3.31,0,0,0,.3-.25Q169.84,46.9,175.72,41c2.59-2.59-1.42-6.61-4-4l-8,8v-9.8c0-3.67-5.68-3.67-5.68,0V45.43l-8.59-8.59c-2.6-2.6-6.61,1.42-4,4l11.93,11.93a3,3,0,0,0,.68.5V77.64L137.38,64.73a3.09,3.09,0,0,0-.06-.5L133.6,48.06c-.82-3.57-6.29-2.06-5.47,1.51s1.67,7.29,2.51,10.94l-8.38-5.25c-3.12-1.95-6,3-2.87,4.9L128,65.52l-12,2.75C112.41,69.1,113.93,74.57,117.49,73.75Z"/><path d="M82.05,122.66q0-35.76,0-71.52c0-2.27,2.5-2.28,2.5,0l0,71.52C84.56,124.93,82.05,124.93,82.05,122.66Z"/></g></g></svg>