<svg xmlns="http://www.w3.org/2000/svg" viewBox="0 0 68.81 95.68"><defs><style>.cls-1{fill:#0143c9;}.cls-2{fill:#b0c9ff;}.cls-3{fill:#fff;}</style></defs><g id="Layer_2" data-name="Layer 2"><g id="OBJECTS"><path class="cls-1" d="M61.9,78.56c-2.95,1-3.47-2.11-6.59-2.11s-3.12,2.17-6.23,2.17S46,76.45,42.84,76.45s-3.11,2.17-6.23,2.17-3.12-2.17-6.23-2.17-3.12,2.17-6.24,2.17S21,76.45,17.9,76.45s-3.7,3.2-6.62,2.1c-1.1-.41,1.46-2.19,1.46-3.36S10.57,74,10.57,72.84s2.17-1.17,2.17-2.34-2.17-1.18-2.17-2.35S12.74,67,12.74,65.8s-2.17-1.18-2.17-2.36,2.17-1.17,2.17-2.35-2.55-3-1.44-3.38c3.2-1.11,3.75,2.11,7.13,2.11s3.39-2.17,6.78-2.17S28.6,59.82,32,59.82s3.39-2.17,6.78-2.17,3.39,2.17,6.78,2.17,3.39-2.17,6.78-2.17,3.39,2.17,6.78,2.17,4-3.29,7.17-2.1c1.13.42-1.71,2-2,3.12s1.84,1.66,1.57,2.83-2.39.69-2.66,1.86,1.84,1.66,1.57,2.84-2.38.69-2.65,1.86,1.84,1.66,1.57,2.84-2.78,1-2.68,2.19C61.14,77.07,63,78.16,61.9,78.56Z"/><path class="cls-2" d="M68.42,55C63.89,30.68,43.64,31,36.78,39.54,33,44.19,34.4,50.43,34.4,50.43A12.71,12.71,0,0,1,54.68,40.08c9,6.87,9.76,21.51,1.44,29.65-7.19,7-24.58,10.66-35.25-2.71C5.48,47.73,18.47,17.26,33.7,0,29.14,3.92,3.82,26.85.39,55A50.26,50.26,0,0,0,0,61.27,34.4,34.4,0,0,0,24.92,94.34l.67.19.8.2.77.18.77.15.84.15.74.11c.3.05.61.08.91.12l.69.08,1.06.08c.19,0,.38,0,.58,0,.54,0,1.1.05,1.65.05h0A34.39,34.39,0,0,0,68.81,61.27,34.42,34.42,0,0,0,68.42,55Z"/><path class="cls-3" d="M39.54,84.92h0c-.49,0-1,0-1.47,0h-.51l-.94,0-.61,0-.82-.06-.65-.07-.75-.09-.69-.1-.69-.13-.71-.13-.61-.14a30.5,30.5,0,0,1-23.18-25c-.15-1-.25-2-.31-3.1a46.82,46.82,0,0,1,.06-5.56A58.42,58.42,0,0,1,12.5,31.68a62.14,62.14,0,0,0-7.29,24,44.77,44.77,0,0,0-.06,5.56c0,1.05.16,2.08.31,3.1a30.49,30.49,0,0,0,23.18,25l.61.13.71.14c.23,0,.46.09.69.12l.69.11.74.09.66.07.82.06.61,0,.94,0h.51c.49,0,1,0,1.47,0h0A30.42,30.42,0,0,0,64.18,70,30.39,30.39,0,0,1,39.54,84.92Z"/></g></g></svg>