<svg xmlns="http://www.w3.org/2000/svg" viewBox="0 0 880.7 880.7"><defs><style>.cls-1{fill:#ec1556;}</style></defs><g id="Layer_2" data-name="Layer 2"><g id="object"><path class="cls-1" d="M618.11,253.89c9.47,35.9,37.9,108.19,14.95,214.37s-170,152-205.89,167,99.93,100.82,136.1,58.32S587.7,624.3,646,596.39s98.22-71.8,94.73-110.18-29.41-41.38-33.4-54.33,23.43-5.5,8.47-105.7S625.59,233,618.11,253.89Z"/><path class="cls-1" d="M575.5,301.68C632.06,397,609.34,469.4,592.19,499.17c-17.81,30.91-112.67,122.15-180,81.27-85-51.63-67.57-69.8-119.91-73.79-.17-8-.23-66.81,85.52-62.32,83.24,4.37,190,19.52,191.57-140.57C569.45,298.93,573.13,297.67,575.5,301.68Z"/><path class="cls-1" d="M588.07,270.35c-2.17-34.3-9.73-117.61-123.67-121.16C384.27,146.7,324.48,213,304.54,256.89S305,396.45,329.42,397c14.21.27,11.66-24.19,13.5-54.82,1.72-28.55,4.74-57,15.32-81.26C380.18,210.52,421.19,203,477.52,203s86,52.29,103.56,73C585.61,281.44,588.63,279.24,588.07,270.35Z"/><path class="cls-1" d="M290.8,380.24c-43.88-149.89,40.41-172.11,33.68-183.18-7-11.46-56.33-18.94-79.26-.49s-34.4,39.88-33.41,92.22c.77,40.16,46.41,78.54,70.34,97.15C289.41,391.6,292.39,385.65,290.8,380.24Z"/><path class="cls-1" d="M421.19,616c-1-11.47-53.85-36-79.76-62.46s-80.76-40.87-80.76-40.87,18.8-55.35,7.65-85.75-43-73.79-52.52-76.28S151,367.06,166,411.43,146,489.7,178.91,553,422.18,627.43,421.19,616Z"/><path class="cls-1" d="M372.34,417.91c10,6,64.37,10.68,74.34,1.21s49.76-72.21,53.77-98.42,3.49-31.5-12-47.91-54.82-8.93-67.29,11.51-3,30.41,3,31.91-.5-13.46,7-22.93,30.91-18.42,39.39-5,6,56.33-31.91,57.05c-43.38.83-39.87-47.1-30.41-65.54s58.57-53.57,101.19-13.46c34.91,32.86-5,103.49-13,111.68s-22.93,44.86,5.48,31.91,53.85-43.88,49.86-103.2S494,213.52,435.65,232s-63.31,54.84-73.29,96.71S362.36,411.93,372.34,417.91Z"/><path class="cls-1" d="M344.8,651.52l41.12-8.89s6.63-2.63,4.15,9.2-34.18,164.4-34.18,164.4L320,809.76S335.08,674.44,335.89,663,344.8,651.52,344.8,651.52Z"/><path class="cls-1" d="M440.35,880.7C197.54,880.7,0,683.16,0,440.34S197.54,0,440.35,0,880.7,197.54,880.7,440.34,683.16,880.7,440.35,880.7Zm0-816.08c-207.17,0-375.72,168.54-375.72,375.72S233.18,816.08,440.35,816.08,816.07,647.53,816.07,440.34,647.53,64.62,440.35,64.62Z"/></g></g></svg>